# xmcd
#
# Track frame offsets: 
#        150
#        16683
#        31030
#        43765
#        57950
#        69943
#        83233
#        98878
#        112980
#        124475
#        135630
#        147823
#        160373
#        175395
#        187745
#        199005
#        213808
#        226545
#        239235
#
# Disc length: 3390 seconds
#
# Revision: 1
# Processed by: cddbd v1.5.2PL0 Copyright (c) Steve Scherf et al.
# Submitted via: ExactAudioCopyFreeDBPlugin 1.0
#
DISCID=fa0d3c13
DTITLE=Various Artist - Old Songs Collect 4
DYEAR=1900
DGENRE=UnClassifiable
TTITLE0=The Righteous Brothers - Unchained Melody
TTITLE1=Johnny Horton - The Mansion You Stole
TTITLE2=Johnny Horton - All for the love of a girl
TTITLE3=Matt Monro - Walk away
TTITLE4=The Platters - The great pretender
TTITLE5=Peter, Paul and Mary - Lemon tree
TTITLE6=Peter, Paul and Mary - Cruel war
TTITLE7=Debbie Reynolds - Tammy
TTITLE8=Bobby Vinton - Ilove how you love me
TTITLE9=Paul Anka - Crazy love
TTITLE10=Johnnie Ray - Just walking in the rain
TTITLE11=Gene Kelly - Singing in the rain
TTITLE12=Petula Clark - This is my song
TTITLE13=Bobby Bare - 500 miles away from home
TTITLE14=Little Pegg March - Iwill follow him
TTITLE15=Carpenters - Bless the beasts and children
TTITLE16=Ruby Murray - Goodbye Jimmy goodbye
TTITLE17=Al Martino - Spenish eyes
TTITLE18=Engelbert Humperdinck - Love me with all your heart
EXTD=
EXTT0=
EXTT1=
EXTT2=
EXTT3=
EXTT4=
EXTT5=
EXTT6=
EXTT7=
EXTT8=
EXTT9=
EXTT10=
EXTT11=
EXTT12=
EXTT13=
EXTT14=
EXTT15=
EXTT16=
EXTT17=
EXTT18=
PLAYORDER=
